<svg width="100%" height="100%" viewBox="0 0 1506 606" preserveAspectRatio="none" fill="none" xmlns="http://www.w3.org/2000/svg">
<rect x="1.5" y="1.5" width="1503" height="603" fill="#1C4A63" stroke="black" stroke-width="3"/>
<mask id="path-2-outside-1_19_5" maskUnits="userSpaceOnUse" x="0" y="0" width="1506" height="606" fill="black">
<rect fill="white" width="1506" height="606"/>
<path fill-rule="evenodd" clip-rule="evenodd" d="M172 3H3V603H1503V3H562L518.89 50.029C511.314 58.2941 500.616 63 489.404 63H244.596C233.384 63 222.686 58.2941 215.11 50.029L172 3Z"/>
</mask>
<path fill-rule="evenodd" clip-rule="evenodd" d="M172 3H3V603H1503V3H562L518.89 50.029C511.314 58.2941 500.616 63 489.404 63H244.596C233.384 63 222.686 58.2941 215.11 50.029L172 3Z" fill="#456B7E"/>
<path d="M3 3V0H0V3H3ZM172 3L174.211 0.972826L173.32 0H172V3ZM3 603H0V606H3V603ZM1503 603V606H1506V603H1503ZM1503 3H1506V0H1503V3ZM562 3V0H560.68L559.789 0.972827L562 3ZM518.89 50.029L521.102 52.0562V52.0561L518.89 50.029ZM215.11 50.029L212.898 52.0562V52.0562L215.11 50.029ZM3 6H172V0H3V6ZM6 603V3H0V603H6ZM1503 600H3V606H1503V600ZM1500 3V603H1506V3H1500ZM562 6H1503V0H562V6ZM559.789 0.972827L516.679 48.0018L521.102 52.0561L564.211 5.02717L559.789 0.972827ZM516.679 48.0018C509.671 55.6471 499.775 60 489.404 60V66C501.457 66 512.957 60.9412 521.102 52.0562L516.679 48.0018ZM489.404 60H244.596V66H489.404V60ZM244.596 60C234.225 60 224.33 55.6471 217.321 48.0018L212.898 52.0562C221.043 60.9412 232.543 66 244.596 66V60ZM217.321 48.0018L174.211 0.972826L169.789 5.02717L212.898 52.0562L217.321 48.0018Z" fill="black" mask="url(#path-2-outside-1_19_5)"/>
<path fill-rule="evenodd" clip-rule="evenodd" d="M172 7H3V603H1503V7H562L518.879 53.7271C511.307 61.9329 500.649 66.6 489.483 66.6H244.517C233.351 66.6 222.693 61.9329 215.121 53.7271L172 7Z" fill="#1C4A63"/>
</svg>
