<svg width="174" height="76" viewBox="0 0 174 76" fill="none" xmlns="http://www.w3.org/2000/svg">
<rect x="4" y="16" width="166" height="43" rx="6" fill="url(#paint0_linear_1_2)" stroke="black" stroke-width="2"/>
<rect x="1" y="21" width="172" height="8" fill="url(#paint1_linear_1_2)" stroke="black" stroke-width="2"/>
<rect x="1" y="29" width="172" height="8" fill="url(#paint2_linear_1_2)" stroke="black" stroke-width="2"/>
<rect x="1" y="37" width="172" height="8" fill="url(#paint3_linear_1_2)" stroke="black" stroke-width="2"/>
<rect x="1" y="45" width="172" height="8" fill="url(#paint4_linear_1_2)" stroke="black" stroke-width="2"/>
<path d="M152 1.5C158.351 1.5 163.5 6.64873 163.5 13V63C163.5 69.3513 158.351 74.5 152 74.5H22C15.6487 74.5 10.5 69.3513 10.5 63V13C10.5 6.64873 15.6487 1.5 22 1.5H152Z" fill="url(#paint5_linear_1_2)" stroke="black" stroke-width="3"/>
<path d="M22 4H152C156.971 4 161 8.02944 161 13V63C161 67.9706 156.971 72 152 72H22C17.0294 72 13 67.9706 13 63V13C13 8.02944 17.0294 4 22 4Z" fill="url(#paint6_linear_1_2)" stroke="white" stroke-width="2"/>
<path d="M20.4221 6.28444C21.1315 6.9938 20.5564 8.71896 19.1377 10.1377C17.7189 11.5564 15.9938 12.1315 15.2844 11.4221C14.5751 10.7127 15.1501 8.98759 16.5688 7.56886C17.9876 6.15012 19.7127 5.57507 20.4221 6.28444Z" fill="white"/>
<defs>
<linearGradient id="paint0_linear_1_2" x1="5" y1="37.5" x2="169" y2="37.5" gradientUnits="userSpaceOnUse">
<stop offset="0.015" stop-color="#397392"/>
<stop offset="0.0150639" stop-color="#2B5371"/>
<stop offset="0.984795" stop-color="#2B5371"/>
<stop offset="0.985" stop-color="#397392"/>
</linearGradient>
<linearGradient id="paint1_linear_1_2" x1="2" y1="25.0001" x2="172" y2="25.0001" gradientUnits="userSpaceOnUse">
<stop offset="0.02" stop-color="#3A7493"/>
<stop offset="0.02" stop-color="#2C5472"/>
<stop offset="0.98" stop-color="#2C5472"/>
<stop offset="0.98" stop-color="#3A7493"/>
</linearGradient>
<linearGradient id="paint2_linear_1_2" x1="2" y1="33.0001" x2="172" y2="33.0001" gradientUnits="userSpaceOnUse">
<stop offset="0.02" stop-color="#3A7493"/>
<stop offset="0.02" stop-color="#2C5472"/>
<stop offset="0.98" stop-color="#2C5472"/>
<stop offset="0.98" stop-color="#3A7493"/>
</linearGradient>
<linearGradient id="paint3_linear_1_2" x1="2" y1="41.0001" x2="172" y2="41.0001" gradientUnits="userSpaceOnUse">
<stop offset="0.02" stop-color="#3A7493"/>
<stop offset="0.02" stop-color="#2C5472"/>
<stop offset="0.98" stop-color="#2C5472"/>
<stop offset="0.98" stop-color="#3A7493"/>
</linearGradient>
<linearGradient id="paint4_linear_1_2" x1="2" y1="49.0001" x2="172" y2="49.0001" gradientUnits="userSpaceOnUse">
<stop offset="0.02" stop-color="#3A7493"/>
<stop offset="0.02" stop-color="#2C5472"/>
<stop offset="0.98" stop-color="#2C5472"/>
<stop offset="0.98" stop-color="#3A7493"/>
</linearGradient>
<linearGradient id="paint5_linear_1_2" x1="87" y1="3" x2="87" y2="73" gradientUnits="userSpaceOnUse">
<stop offset="0.85" stop-color="#DB433B"/>
<stop offset="0.86" stop-color="#B02727"/>
</linearGradient>
<linearGradient id="paint6_linear_1_2" x1="87" y1="3" x2="87" y2="73" gradientUnits="userSpaceOnUse">
<stop offset="0.75" stop-color="#2174B4"/>
<stop offset="0.76" stop-color="#1C5880"/>
<stop offset="0.85" stop-color="#1C5880"/>
<stop offset="0.86" stop-color="#1E4A63"/>
</linearGradient>
</defs>
</svg>