<svg width="324" height="106" viewBox="0 0 324 106" fill="none" xmlns="http://www.w3.org/2000/svg">
<rect x="6" y="22" width="312" height="62" rx="11" fill="url(#paint0_linear_1_2)" stroke="black" stroke-width="2"/>
<rect x="1" y="33" width="322" height="10" fill="url(#paint1_linear_1_2)" stroke="black" stroke-width="2"/>
<rect x="1" y="43" width="322" height="10" fill="url(#paint2_linear_1_2)" stroke="black" stroke-width="2"/>
<rect x="1" y="53" width="322" height="10" fill="url(#paint3_linear_1_2)" stroke="black" stroke-width="2"/>
<rect x="1" y="63" width="322" height="10" fill="url(#paint4_linear_1_2)" stroke="black" stroke-width="2"/>
<path d="M287 1.5C298.874 1.5 308.5 11.1259 308.5 23V83C308.5 94.8741 298.874 104.5 287 104.5H37C25.1259 104.5 15.5 94.8741 15.5 83V23C15.5 11.1259 25.1259 1.5 37 1.5H287Z" fill="url(#paint5_linear_1_2)" stroke="black" stroke-width="3"/>
<path d="M37 4H287C297.493 4 306 12.5066 306 23V83C306 93.4934 297.493 102 287 102H37C26.5066 102 18 93.4934 18 83V23C18 12.5066 26.5066 4 37 4Z" fill="url(#paint6_linear_1_2)" stroke="white" stroke-width="2"/>
<path d="M30.299 8.86007C31.3261 9.88721 30.4934 12.3852 28.4392 14.4395C26.3849 16.4937 23.8869 17.3264 22.8598 16.2992C21.8327 15.2721 22.6653 12.7741 24.7196 10.7199C26.7739 8.6656 29.2718 7.83294 30.299 8.86007Z" fill="white"/>
<defs>
<linearGradient id="paint0_linear_1_2" x1="7" y1="53" x2="317" y2="53" gradientUnits="userSpaceOnUse">
<stop offset="0.015" stop-color="#397392"/>
<stop offset="0.0150639" stop-color="#2B5371"/>
<stop offset="0.984795" stop-color="#2B5371"/>
<stop offset="0.985" stop-color="#397392"/>
</linearGradient>
<linearGradient id="paint1_linear_1_2" x1="2" y1="38.0001" x2="322" y2="38.0001" gradientUnits="userSpaceOnUse">
<stop offset="0.02" stop-color="#3A7493"/>
<stop offset="0.02" stop-color="#2C5472"/>
<stop offset="0.98" stop-color="#2C5472"/>
<stop offset="0.98" stop-color="#3A7493"/>
</linearGradient>
<linearGradient id="paint2_linear_1_2" x1="2" y1="48.0001" x2="322" y2="48.0001" gradientUnits="userSpaceOnUse">
<stop offset="0.02" stop-color="#3A7493"/>
<stop offset="0.02" stop-color="#2C5472"/>
<stop offset="0.98" stop-color="#2C5472"/>
<stop offset="0.98" stop-color="#3A7493"/>
</linearGradient>
<linearGradient id="paint3_linear_1_2" x1="2" y1="58.0001" x2="322" y2="58.0001" gradientUnits="userSpaceOnUse">
<stop offset="0.02" stop-color="#3A7493"/>
<stop offset="0.02" stop-color="#2C5472"/>
<stop offset="0.98" stop-color="#2C5472"/>
<stop offset="0.98" stop-color="#3A7493"/>
</linearGradient>
<linearGradient id="paint4_linear_1_2" x1="2" y1="68.0001" x2="322" y2="68.0001" gradientUnits="userSpaceOnUse">
<stop offset="0.02" stop-color="#3A7493"/>
<stop offset="0.02" stop-color="#2C5472"/>
<stop offset="0.98" stop-color="#2C5472"/>
<stop offset="0.98" stop-color="#3A7493"/>
</linearGradient>
<linearGradient id="paint5_linear_1_2" x1="162" y1="3" x2="162" y2="103" gradientUnits="userSpaceOnUse">
<stop offset="0.85" stop-color="#DB433B"/>
<stop offset="0.86" stop-color="#B02727"/>
</linearGradient>
<linearGradient id="paint6_linear_1_2" x1="162" y1="3" x2="162" y2="103" gradientUnits="userSpaceOnUse">
<stop offset="0.75" stop-color="#DB433B"/>
<stop offset="0.76" stop-color="#CC3D36"/>
<stop offset="0.85" stop-color="#CC3D36"/>
<stop offset="0.86" stop-color="#B02727"/>
</linearGradient>
</defs>
</svg>
