<svg width="105" height="105" viewBox="0 0 105 105" fill="none" xmlns="http://www.w3.org/2000/svg">
<mask id="path-1-outside-1_19_5" maskUnits="userSpaceOnUse" x="0" y="0" width="105" height="105" fill="black">
<rect fill="white" width="105" height="105"/>
<path fill-rule="evenodd" clip-rule="evenodd" d="M3 4C3 3.44772 3.44771 3 4 3H100.586C101.477 3 101.923 4.07714 101.293 4.70711L76.2929 29.7071C76.1054 29.8946 75.851 30 75.5858 30H31C30.4477 30 30 30.4477 30 31V75.5858C30 75.851 29.8946 76.1054 29.7071 76.2929L4.70711 101.293C4.07714 101.923 3 101.477 3 100.586V4Z"/>
</mask>
<path fill-rule="evenodd" clip-rule="evenodd" d="M3 4C3 3.44772 3.44771 3 4 3H100.586C101.477 3 101.923 4.07714 101.293 4.70711L76.2929 29.7071C76.1054 29.8946 75.851 30 75.5858 30H31C30.4477 30 30 30.4477 30 31V75.5858C30 75.851 29.8946 76.1054 29.7071 76.2929L4.70711 101.293C4.07714 101.923 3 101.477 3 100.586V4Z" fill="#D9D9D9"/>
<path d="M4.70711 101.293L2.58579 99.1716L4.70711 101.293ZM101.293 4.70711L99.1716 2.58579L101.293 4.70711ZM100.586 0H4V6H100.586V0ZM78.4142 31.8284L103.414 6.82843L99.1716 2.58579L74.1716 27.5858L78.4142 31.8284ZM75.5858 27H31V33H75.5858V27ZM27 31V75.5858H33V31H27ZM6.82843 103.414L31.8284 78.4142L27.5858 74.1716L2.58579 99.1716L6.82843 103.414ZM0 4V100.586H6V4H0ZM2.58579 99.1716C3.84572 97.9116 6 98.804 6 100.586H0C0 104.149 4.30856 105.934 6.82843 103.414L2.58579 99.1716ZM27 75.5858C27 75.0554 27.2107 74.5466 27.5858 74.1716L31.8284 78.4142C32.5786 77.6641 33 76.6467 33 75.5858H27ZM31 27C28.7909 27 27 28.7909 27 31H33C33 32.1046 32.1046 33 31 33V27ZM74.1716 27.5858C74.5466 27.2107 75.0554 27 75.5858 27V33C76.6467 33 77.6641 32.5786 78.4142 31.8284L74.1716 27.5858ZM4 0C1.79086 0 0 1.79086 0 4H6C6 5.10457 5.10457 6 4 6V0ZM100.586 6C98.804 6 97.9117 3.8457 99.1716 2.58579L103.414 6.82843C105.934 4.30859 104.149 0 100.586 0V6Z" fill="black" mask="url(#path-1-outside-1_19_5)"/>
<path fill-rule="evenodd" clip-rule="evenodd" d="M103 3H3V103L16 90V56L30 42V30H76L103 3Z" fill="url(#paint0_linear_19_5)"/>
<path opacity="0.4" d="M27 27H79.0001L76.0001 30H30.0001V76L27 79V27Z" fill="white"/>
<path d="M31.5 76.6211L14.5 93.6211V55.3789L31.5 38.3789V76.6211Z" fill="#1C4A63" stroke="black" stroke-width="3"/>
<path fill-rule="evenodd" clip-rule="evenodd" d="M103 3H3V103L7 99V10H96L103 3Z" fill="black" fill-opacity="0.2"/>
<rect x="1.5" y="1.5" width="23" height="11" fill="#1C4A63" stroke="black" stroke-width="3"/>
<rect x="39" y="3" width="7" height="7" fill="black"/>
<rect x="50" y="3" width="7" height="7" fill="black"/>
<rect x="61" y="3" width="7" height="7" fill="black"/>
<defs>
<linearGradient id="paint0_linear_19_5" x1="103" y1="53" x2="3" y2="53" gradientUnits="userSpaceOnUse">
<stop offset="0.85" stop-color="#DB433B"/>
<stop offset="0.86" stop-color="#B02727"/>
</linearGradient>
</defs>
</svg>
