<svg width="52" height="52" viewBox="0 0 52 52" fill="none" xmlns="http://www.w3.org/2000/svg">
<rect x="1.5" y="1.5" width="49" height="49" rx="11.5" fill="url(#paint0_linear_1_2)" stroke="black" stroke-width="3"/>
<rect x="11" y="11" width="30" height="30" rx="5" fill="white"/>
<path fill-rule="evenodd" clip-rule="evenodd" d="M24.6154 16C23.5109 16 22.6154 16.8954 22.6154 18V23.6155H17C15.8954 23.6155 15 24.5109 15 25.6155V28.3847C15 29.4893 15.8954 30.3847 17 30.3847H22.6154V36C22.6154 37.1046 23.5109 38 24.6154 38H27.3847C28.4892 38 29.3847 37.1046 29.3847 36V30.3847H35C36.1046 30.3847 37 29.4893 37 28.3847V25.6155C37 24.5109 36.1046 23.6155 35 23.6155H29.3847V18C29.3847 16.8954 28.4892 16 27.3847 16H24.6154Z" fill="#B02828"/>
<path fill-rule="evenodd" clip-rule="evenodd" d="M24.6154 14C23.5109 14 22.6154 14.8954 22.6154 16V21.6155H17C15.8954 21.6155 15 22.5109 15 23.6155V26.3847C15 27.4893 15.8954 28.3847 17 28.3847H22.6154V34C22.6154 35.1046 23.5109 36 24.6154 36H27.3847C28.4892 36 29.3847 35.1046 29.3847 34V28.3847H35C36.1046 28.3847 37 27.4893 37 26.3847V23.6155C37 22.5109 36.1046 21.6155 35 21.6155H29.3847V16C29.3847 14.8954 28.4892 14 27.3847 14H24.6154Z" fill="#DB443C"/>
<defs>
<linearGradient id="paint0_linear_1_2" x1="26" y1="3" x2="26" y2="49" gradientUnits="userSpaceOnUse">
<stop offset="0.65" stop-color="#DB433B"/>
<stop offset="0.66" stop-color="#B02727"/>
</linearGradient>
</defs>
</svg>
