<svg width="100%" height="100%" viewBox="0 0 1733 116" preserveAspectRatio="none" fill="none" xmlns="http://www.w3.org/2000/svg">
<rect x="943.5" y="40.5" width="584" height="54" fill="#243D5B" stroke="black" stroke-width="3"/>
<path d="M1003 67C1003 63.134 1006.13 60 1010 60H1123.82C1130.09 60 1133.2 67.6223 1128.71 72.0076L1121.54 79.0076C1120.23 80.2849 1118.48 81 1116.65 81H1010C1006.13 81 1003 77.866 1003 74V67Z" fill="black"/>
<rect x="1414" y="58" width="10" height="17" fill="black"/>
<rect x="1428" y="58" width="10" height="17" fill="black"/>
<rect x="1442" y="58" width="10" height="17" fill="black"/>
<path d="M1731.5 1.5V114.5H1499C1491.04 114.478 1485.42 113.473 1481.64 110.433C1477.81 107.347 1476.22 102.455 1475.51 95.6562V95.6553L1473.52 78.7578C1472.65 74.8241 1471.44 72.5806 1469.47 71.2061C1467.55 69.8656 1464.66 69.1668 1459.95 69.0215L1458.98 69H1051.53L1049.92 69.041C1042.23 69.2929 1039.53 70.2138 1037.03 72.5879L1001.05 107.575L1001.03 107.594L1001.01 107.61C998.103 110.247 995.454 112.017 992.222 113.094C989.021 114.16 985.359 114.509 980.5 114.499V114.5H1.5V1.5H1731.5Z" fill="#3B5375" stroke="black" stroke-width="3"/>
<path d="M3 3H1728V109H1497.27C1481.44 108.957 1476.69 105.064 1475.29 92.1362L1473.3 75.7544C1471.49 67.8338 1467.99 65.3038 1457.31 65.1544H1050.29C1041.33 65.3259 1037.91 66.1594 1034.8 69.009L998.845 102.736C993.234 107.651 988.967 109.02 979.368 109H3V3Z" fill="#2A4468"/>
</svg>
