<svg width="100%" height="100%" viewBox="0 0 1734 132" preserveAspectRatio="none" fill="none" xmlns="http://www.w3.org/2000/svg">
<path d="M395.52 1.5L395.539 1.50098C399.804 1.61332 403.028 2.11208 405.696 3.48828C408.231 4.79573 410.106 6.81176 411.916 9.63867L412.278 10.2148L412.281 10.2197L419.263 21.6904C421.265 24.7285 423.001 26.4583 425.099 27.4912C427.229 28.5406 429.914 28.9617 434.014 29H577.978C581.431 28.9491 583.803 28.5192 585.875 27.46C587.955 26.3969 589.885 24.6216 592.305 21.5908L601.773 8.13672L601.791 8.1123L601.809 8.08887C603.669 5.65838 605.396 3.97269 607.524 2.92383C609.648 1.87704 612.011 1.54375 614.978 1.5H1732.5V97.5H1.5V1.5H395.52Z" fill="#3B5375" stroke="black" stroke-width="3"/>
<path d="M3 6H395.5C403.896 6.22118 407.293 7.96884 411 14L418 25.5C422.156 31.81 425.674 33.4223 434 33.5H578C585.12 33.395 588.535 31.7257 593.5 25.5L603 12C606.597 7.30034 609.236 6.08497 615 6H1731V99H3V6Z" fill="#243D5B"/>
<path d="M395.52 34.5L395.539 34.501C399.804 34.6133 403.028 35.1121 405.696 36.4883C408.231 37.7957 410.106 39.8118 411.916 42.6387L412.278 43.2148L412.281 43.2197L419.263 54.6904C421.265 57.7285 423.001 59.4583 425.099 60.4912C427.229 61.5406 429.914 61.9617 434.014 62H577.978C581.431 61.9491 583.803 61.5192 585.875 60.46C587.955 59.3969 589.885 57.6216 592.305 54.5908L601.773 41.1367L601.791 41.1123L601.809 41.0889C603.669 38.6584 605.396 36.9727 607.524 35.9238C609.648 34.877 612.011 34.5438 614.978 34.5H1732.5V130.5H1.5V34.5H395.52Z" fill="#2A4468" stroke="black" stroke-width="3"/>
<rect x="447" y="30" width="12" height="15" fill="black"/>
<rect x="464" y="30" width="12" height="15" fill="black"/>
<rect x="481" y="30" width="12" height="15" fill="black"/>
<rect x="498" y="30" width="12" height="15" fill="black"/>
</svg>
