<svg width="670" height="100" viewBox="0 0 670 100" fill="none" xmlns="http://www.w3.org/2000/svg">
<mask id="path-1-outside-1_0_1" maskUnits="userSpaceOnUse" x="0" y="0" width="670" height="100" fill="black">
<rect fill="white" width="670" height="100"/>
<path fill-rule="evenodd" clip-rule="evenodd" d="M15 10C12.2386 10 10 12.2386 10 15V85C10 87.7614 12.2386 90 15 90H655C657.761 90 660 87.7614 660 85V15C660 12.2386 657.761 10 655 10H229L223.406 18.95C220.665 23.3357 215.858 26 210.686 26H157.314C152.142 26 147.335 23.3357 144.594 18.95L139 10H15Z"/>
</mask>
<path fill-rule="evenodd" clip-rule="evenodd" d="M15 10C12.2386 10 10 12.2386 10 15V85C10 87.7614 12.2386 90 15 90H655C657.761 90 660 87.7614 660 85V15C660 12.2386 657.761 10 655 10H229L223.406 18.95C220.665 23.3357 215.858 26 210.686 26H157.314C152.142 26 147.335 23.3357 144.594 18.95L139 10H15Z" fill="#38728E"/>
<path d="M229 10V0H223.458L220.52 4.7L229 10ZM223.406 18.95L214.926 13.65L214.926 13.65L223.406 18.95ZM144.594 18.95L136.114 24.25L136.114 24.25L144.594 18.95ZM139 10L147.48 4.70001L144.542 0H139V10ZM20 15C20 17.7614 17.7614 20 15 20V0C6.71573 0 0 6.71573 0 15H20ZM20 85V15H0V85H20ZM15 80C17.7614 80 20 82.2385 20 85H0C0 93.2843 6.71579 100 15 100V80ZM655 80H15V100H655V80ZM650 85C650 82.2386 652.239 80 655 80V100C663.284 100 670 93.2843 670 85H650ZM650 15V85H670V15H650ZM655 20C652.239 20 650 17.7614 650 15H670C670 6.71572 663.284 0 655 0V20ZM229 20H655V0H229V20ZM220.52 4.7L214.926 13.65L231.886 24.25L237.48 15.3L220.52 4.7ZM214.926 13.65C214.013 15.1119 212.41 16 210.686 16V36C219.306 36 227.318 31.5595 231.886 24.2499L214.926 13.65ZM210.686 16H157.314V36H210.686V16ZM157.314 16C155.59 16 153.987 15.1119 153.074 13.65L136.114 24.25C140.682 31.5595 148.694 36 157.314 36V16ZM153.074 13.65L147.48 4.70001L130.52 15.3L136.114 24.25L153.074 13.65ZM15 20H139V0H15V20Z" fill="#162B46" mask="url(#path-1-outside-1_0_1)"/>
<path fill-rule="evenodd" clip-rule="evenodd" d="M140.479 15.277C139.556 13.8569 137.978 13 136.285 13H15C12.2386 13 10 15.2386 10 18V85C10 87.7614 12.2386 90 15 90H655C657.761 90 660 87.7614 660 85V18C660 15.2386 657.761 13 655 13H231.715C230.022 13 228.444 13.8569 227.521 15.277L223.436 21.5691C220.669 25.8293 215.935 28.4 210.855 28.4H157.145C152.065 28.4 147.331 25.8293 144.564 21.5691L140.479 15.277Z" fill="#2A4468"/>
</svg>
