<svg width="59" height="146" viewBox="0 0 59 146" fill="none" xmlns="http://www.w3.org/2000/svg">
<rect x="1.5" y="-1.5" width="53" height="143" rx="21.5" transform="matrix(-1 0 0 1 59 3)" fill="url(#paint0_linear_3_21)" stroke="black" stroke-width="3"/>
<rect x="1.5" y="-1.5" width="23" height="18" transform="matrix(-1 0 0 1 26 33)" fill="url(#paint1_linear_3_21)" stroke="black" stroke-width="3"/>
<rect x="1.5" y="-1.5" width="23" height="18" transform="matrix(-1 0 0 1 26 56)" fill="url(#paint2_linear_3_21)" stroke="black" stroke-width="3"/>
<rect x="1.5" y="-1.5" width="23" height="18" transform="matrix(-1 0 0 1 26 79)" fill="url(#paint3_linear_3_21)" stroke="black" stroke-width="3"/>
<rect x="1.5" y="-1.5" width="23" height="18" transform="matrix(-1 0 0 1 26 102)" fill="url(#paint4_linear_3_21)" stroke="black" stroke-width="3"/>
<defs>
<linearGradient id="paint0_linear_3_21" x1="50" y1="70" x2="0" y2="70" gradientUnits="userSpaceOnUse">
<stop offset="0.35" stop-color="#DB433B"/>
<stop offset="0.36" stop-color="#B02727"/>
</linearGradient>
<linearGradient id="paint1_linear_3_21" x1="20" y1="7.5" x2="0" y2="7.5" gradientUnits="userSpaceOnUse">
<stop offset="0.7" stop-color="#397392"/>
<stop offset="0.71" stop-color="#2B5371"/>
</linearGradient>
<linearGradient id="paint2_linear_3_21" x1="20" y1="7.5" x2="0" y2="7.5" gradientUnits="userSpaceOnUse">
<stop offset="0.7" stop-color="#397392"/>
<stop offset="0.71" stop-color="#2B5371"/>
</linearGradient>
<linearGradient id="paint3_linear_3_21" x1="20" y1="7.5" x2="0" y2="7.5" gradientUnits="userSpaceOnUse">
<stop offset="0.7" stop-color="#397392"/>
<stop offset="0.71" stop-color="#2B5371"/>
</linearGradient>
<linearGradient id="paint4_linear_3_21" x1="20" y1="7.5" x2="0" y2="7.5" gradientUnits="userSpaceOnUse">
<stop offset="0.7" stop-color="#397392"/>
<stop offset="0.71" stop-color="#2B5371"/>
</linearGradient>
</defs>
</svg>
