<svg width="402" height="130" viewBox="0 0 402 130" fill="none" xmlns="http://www.w3.org/2000/svg">
<rect x="156.5" y="75.5" width="89" height="53" rx="21.5" fill="#1A2A47" stroke="black" stroke-width="3"/>
<rect x="62.5" y="75.5" width="89" height="53" rx="21.5" fill="#1A2A47" stroke="black" stroke-width="3"/>
<rect x="250.5" y="75.5" width="89" height="53" rx="21.5" fill="#1A2A47" stroke="black" stroke-width="3"/>
<rect x="1.5" y="55.5" width="399" height="23" rx="6.5" fill="url(#paint0_linear_1_2)" stroke="black" stroke-width="3"/>
<rect x="19.5" y="45.5" width="363" height="43" rx="11.5" fill="url(#paint1_linear_1_2)" stroke="black" stroke-width="3"/>
<rect x="29.5" y="42.5" width="343" height="49" rx="11.5" fill="url(#paint2_linear_1_2)" stroke="black" stroke-width="3"/>
<rect x="103.5" y="2.5" width="195" height="37" rx="11.5" fill="url(#paint3_linear_1_2)" stroke="black" stroke-width="3"/>
<rect x="141" y="4" width="120" height="34" rx="2" fill="url(#paint4_linear_1_2)"/>
<rect x="49.5" y="19.5" width="303" height="83" rx="31.5" fill="url(#paint5_linear_1_2)" stroke="black" stroke-width="3"/>
<rect x="111" y="21" width="180" height="80" rx="30" fill="url(#paint6_linear_1_2)"/>
<rect x="154.5" y="1.5" width="93" height="13" rx="2.5" fill="url(#paint7_linear_1_2)" stroke="black" stroke-width="3"/>
<rect x="198" y="13" width="6" height="8" fill="black"/>
<rect x="187" y="13" width="6" height="8" fill="black"/>
<rect x="209" y="13" width="6" height="8" fill="black"/>
<rect x="51" y="67" width="300" height="14" fill="black"/>
<ellipse cx="2.71662" cy="1.35831" rx="2.71662" ry="1.35831" transform="matrix(0.624695 -0.780869 0.624695 0.780869 35.8001 70.2422)" fill="white"/>
<ellipse cx="2.71662" cy="1.35831" rx="2.71662" ry="1.35831" transform="matrix(0.624695 -0.780869 0.624695 0.780869 33 49.2426)" fill="white"/>
<ellipse cx="2.71662" cy="1.35831" rx="2.71662" ry="1.35831" transform="matrix(0.624695 -0.780869 0.624695 0.780869 23 52.2426)" fill="white"/>
<ellipse cx="2.71662" cy="1.35831" rx="2.71662" ry="1.35831" transform="matrix(-0.624695 -0.780869 -0.624695 0.780869 265.691 70.2422)" fill="white"/>
<ellipse cx="2.71662" cy="1.35831" rx="2.71662" ry="1.35831" transform="matrix(-0.624695 -0.780869 -0.624695 0.780869 369.091 49.2426)" fill="white"/>
<ellipse cx="2.71662" cy="1.35831" rx="2.71662" ry="1.35831" transform="matrix(-0.624695 -0.780869 -0.624695 0.780869 379.091 52.2426)" fill="white"/>
<defs>
<linearGradient id="paint0_linear_1_2" x1="201" y1="57" x2="201" y2="77" gradientUnits="userSpaceOnUse">
<stop offset="0.5" stop-color="#397392"/>
<stop offset="0.51" stop-color="#2B5371"/>
</linearGradient>
<linearGradient id="paint1_linear_1_2" x1="201" y1="47" x2="201" y2="87" gradientUnits="userSpaceOnUse">
<stop offset="0.65" stop-color="#764364"/>
<stop offset="0.66" stop-color="#502554"/>
</linearGradient>
<linearGradient id="paint2_linear_1_2" x1="201" y1="44" x2="201" y2="90" gradientUnits="userSpaceOnUse">
<stop offset="0.75" stop-color="#BFD6E1"/>
<stop offset="0.76" stop-color="#3A586D"/>
</linearGradient>
<linearGradient id="paint3_linear_1_2" x1="201" y1="4" x2="201" y2="38" gradientUnits="userSpaceOnUse">
<stop offset="0.04" stop-color="#B4C1CD"/>
<stop offset="0.05" stop-color="#5C7E90"/>
</linearGradient>
<linearGradient id="paint4_linear_1_2" x1="201" y1="4" x2="201" y2="38" gradientUnits="userSpaceOnUse">
<stop offset="0.04" stop-color="white"/>
<stop offset="0.05" stop-color="#7A99AC"/>
</linearGradient>
<linearGradient id="paint5_linear_1_2" x1="201" y1="21" x2="201" y2="101" gradientUnits="userSpaceOnUse">
<stop offset="0.02" stop-color="#B4C1CD"/>
<stop offset="0.03" stop-color="#5C7E90"/>
<stop offset="0.85" stop-color="#5C7E90"/>
<stop offset="0.85"/>
</linearGradient>
<linearGradient id="paint6_linear_1_2" x1="201" y1="21" x2="201" y2="101" gradientUnits="userSpaceOnUse">
<stop offset="0.02" stop-color="white"/>
<stop offset="0.03" stop-color="#7A99AC"/>
<stop offset="0.85" stop-color="#7A99AC"/>
<stop offset="0.85"/>
</linearGradient>
<linearGradient id="paint7_linear_1_2" x1="201" y1="13" x2="201" y2="3" gradientUnits="userSpaceOnUse">
<stop offset="0.595" stop-color="#7B9AAD"/>
<stop offset="0.61" stop-color="#5D7F90"/>
</linearGradient>
</defs>
</svg>
